<?xml version="1.0" encoding="UTF-8"?><svg xmlns="http://www.w3.org/2000/svg" viewBox="0 0 482.04 71.44"><defs><style>.d{fill:#d92323;}</style></defs><g id="a"/><g id="b"><g id="c"><path class="d" d="M8.02,71.44h-2v-2h2v2Zm4.01,0v-2h1.99l.02,1.99h-2Zm-10.02-.01c-1.33-.02-2.01-.03-2.01-.03l.05-2s.67,.02,1.99,.03l-.03,2Zm16.03-.02l-.02-2,2-.03,.03,2-2,.03Zm6.01-.09l-.04-2,2-.04,.04,2-2,.04Zm6.01-.13l-.05-2,2-.05,.05,2-2,.05Zm6.01-.16l-.06-2,2-.06,.06,2-2,.06Zm6-.19l-.07-2,2-.07,.07,2-2,.07Zm6-.22l-.08-2,2-.08,.08,2-2,.08Zm6-.24l-.09-2,2-.09,.09,2-2,.09Zm6-.27l-.09-2,2-.1,.1,2-2,.1Zm6-.29l-.1-2,2-.1,.1,2-2,.1Zm6-.32l-.11-2,2-.11,.11,2-2,.11Zm6-.34l-.12-2,2-.12,.12,2-2,.12Zm5.99-.36l-.12-2,2-.13,.13,2-2,.13Zm5.99-.39l-.13-2,1.99-.13,.14,2-2,.13Zm5.99-.41l-.14-2,1.99-.14,.14,2-2,.14Zm5.99-.43l-.15-1.99,1.99-.15,.15,1.99-2,.15Zm5.99-.45l-.15-1.99,1.99-.15,.16,1.99-2,.15Zm5.99-.47l-.16-1.99,1.99-.16,.16,1.99-2,.16Zm5.98-.49l-.17-1.99,1.99-.17,.17,1.99-1.99,.17Zm5.98-.51l-.17-1.99,1.99-.17,.17,1.99-1.99,.17Zm5.98-.53l-.18-1.99,1.99-.18,.18,1.99-1.99,.18Zm5.98-.55l-.19-1.99,1.99-.19,.19,1.99-1.99,.19Zm5.98-.57l-.19-1.99,1.99-.19,.19,1.99-1.99,.19Zm5.98-.59l-.2-1.99,1.99-.2,.2,1.99-1.99,.2Zm5.97-.61l-.21-1.99,1.99-.21,.21,1.99-1.99,.21Zm5.97-.63l-.21-1.99,1.99-.21,.21,1.99-1.99,.21Zm5.97-.65l-.22-1.99,1.99-.22,.22,1.99-1.99,.22Zm5.97-.66l-.22-1.99,1.99-.23,.22,1.99-1.99,.23Zm5.96-.68l-.23-1.99,1.99-.23,.23,1.99-1.99,.23Zm5.96-.7l-.24-1.99,1.98-.24,.24,1.99-1.99,.24Zm5.96-.72l-.24-1.99,1.98-.24,.25,1.98-1.99,.24Zm5.96-.74l-.25-1.98,1.98-.25,.25,1.98-1.99,.25Zm5.96-.76l-.25-1.98,1.98-.26,.26,1.98-1.99,.26Zm5.95-.77l-.26-1.98,1.98-.26,.26,1.98-1.98,.26Zm5.95-.79l-.27-1.98,1.98-.27,.27,1.98-1.98,.27Zm5.95-.81l-.27-1.98,1.98-.27,.27,1.98-1.98,.27Zm5.95-.83l-.28-1.98,1.98-.28,.28,1.98-1.98,.28Zm5.94-.84l-.28-1.98,1.98-.29,.29,1.98-1.98,.29Zm5.94-.86l-.29-1.98,1.98-.29,.29,1.98-1.98,.29Zm5.94-.88l-.29-1.98,1.98-.3,.3,1.98-1.98,.3Zm5.94-.9l-.3-1.98,1.97-.3,.3,1.98-1.98,.3Zm5.93-.91l-.31-1.98,1.97-.31,.31,1.98-1.98,.31Zm5.93-.93l-.31-1.98,1.97-.31,.32,1.97-1.98,.31Zm5.93-.95l-.32-1.97,1.97-.32,.32,1.97-1.98,.32Zm5.93-.96l-.32-1.97,1.97-.32,.33,1.97-1.97,.33Zm5.92-.98l-.33-1.97,1.97-.33,.33,1.97-1.97,.33Zm5.92-1l-.34-1.97,1.97-.34,.34,1.97-1.97,.34Zm5.92-1.02l-.34-1.97,1.97-.34,.34,1.97-1.97,.34Zm5.91-1.03l-.35-1.97,1.97-.35,.35,1.97-1.97,.35Zm5.91-1.05l-.35-1.97,1.97-.35,.36,1.97-1.97,.35Zm5.91-1.07l-.36-1.97,1.96-.36,.36,1.97-1.97,.36Zm5.91-1.08l-.36-1.97,1.96-.36,.37,1.97-1.97,.36Zm5.9-1.1l-.37-1.97,1.96-.37,.37,1.96-1.97,.37Zm5.9-1.12l-.38-1.96,1.96-.38,.38,1.96-1.96,.38Zm5.9-1.13l-.38-1.96,1.96-.38,.38,1.96-1.96,.38Zm5.89-1.15l-.39-1.96,1.96-.39,.39,1.96-1.96,.39Zm5.89-1.17l-.39-1.96,1.96-.39,.39,1.96-1.96,.39Zm5.89-1.18l-.4-1.96,1.96-.4,.4,1.96-1.96,.4Zm5.88-1.2l-.4-1.96,1.96-.4,.4,1.96-1.96,.4Zm5.88-1.22l-.41-1.96,1.96-.41,.41,1.96-1.96,.41Zm5.88-1.23l-.41-1.96,1.96-.41,.42,1.96-1.96,.42Zm5.87-1.25l-.42-1.96,1.95-.42,.42,1.96-1.96,.42Zm5.87-1.27l-.43-1.95,1.95-.43,.43,1.95-1.96,.43Zm5.86-1.28l-.43-1.95,1.95-.43,.43,1.95-1.95,.43Zm5.86-1.3l-.44-1.95,1.95-.44,.44,1.95-1.95,.44Zm5.86-1.32l-.44-1.95,1.95-.44,.45,1.95-1.95,.44Zm5.85-1.33l-.45-1.95,1.95-.45,.45,1.95-1.95,.45Zm5.85-1.35l-.45-1.95,1.95-.45,.46,1.95-1.95,.45Zm5.85-1.37l-.46-1.95,1.95-.46,.46,1.95-1.95,.46Zm5.84-1.38l-.46-1.95,1.94-.46,.47,1.94-1.95,.47Zm5.84-1.4l-.47-1.94,1.94-.47,.47,1.94-1.95,.47Zm5.83-1.42l-.47-1.94,1.94-.48,.48,1.94-1.94,.48Zm5.83-1.43l-.48-1.94,1.94-.48,.48,1.94-1.94,.48Zm5.83-1.45l-.49-1.94,1.94-.49,.49,1.94-1.94,.49Zm5.82-1.47l-.49-1.94,1.94-.49,.49,1.94-1.94,.49Zm5.82-1.48l-.5-1.94,1.93-.5,.5,1.94-1.94,.5Zm5.81-1.5l-.5-1.94,1.93-.5,.51,1.94-1.94,.5Zm5.81-1.52l-.51-1.93,1.93-.51,.51,1.93-1.93,.51Zm5.81-1.53l-.52-1.93,1.93-.51,.52,1.93-1.93,.51Zm5.79-1.55l-.52-1.93,1.93-.52,.52,1.93-1.93,.52Z"/></g></g></svg>